<?xml version="1.0" standalone="no"?><!DOCTYPE svg PUBLIC "-//W3C//DTD SVG 1.1//EN" "http://www.w3.org/Graphics/SVG/1.1/DTD/svg11.dtd"><svg t="1537515366594" class="icon" style="" viewBox="0 0 1024 1024" version="1.1" xmlns="http://www.w3.org/2000/svg" p-id="3834" xmlns:xlink="http://www.w3.org/1999/xlink" width="16" height="16"><defs><style type="text/css"></style></defs><path d="M554.689167 157.113027s18.119862-5.476908 38.594283-14.332095c20.525607-8.855187 38.645469-19.860188 38.645469-19.860188s-3.378279-14.332095 3.37828-14.332094h21.498142s9.111117 6.654187 10.23721 14.332094c1.177279 7.677908 5.732838 16.584281 5.732838 16.584281l102.064987 3.378279 6.910117-33.117375 26.104886-2.201 3.327094 38.594283s17.044955 3.275907 23.903886 2.098628c6.807745-1.023721 14.741583-3.275907 14.741583-10.953815s3.378279-17.608002 3.378279-17.608002 14.741583 6.500629 14.741583 11.056187c0 4.402 1.177279 18.682909 1.177279 18.682909s1.126093 7.677908 8.036211 7.677908h21.498141l9.111118-23.187282s12.489397-3.275907 18.171048-1.023721c5.630466 2.149814 6.705373 9.878908 6.705373 14.332095 0 4.402-2.252186 15.355816 5.784024 16.533094 7.882652 1.126093 19.194769-3.275907 24.927607 1.126094 5.732838 4.453187 10.288396 12.131094 9.111117 16.58428a264.324771 264.324771 0 0 0-2.149814 9.878908h-133.902712s-2.252186 9.930094-19.297141 17.608002c-17.044955 7.78028-42.126121 20.986281-42.126121 20.986281s26.156072 71.660473 47.654214 89.319661l-20.372048 20.986281s-43.201028-46.323377-54.513145-87.11866c0 0-22.675421 11.005001-39.822749 16.584281-17.044955 5.528094-21.498142 3.327093-27.230979 4.402-5.630466 1.023721-26.156072 21.958816-35.318376 29.739096-9.059931 7.677908-31.684166 18.785281-51.08368 22.010002-19.143583 3.327093-75.908915-1.126093-75.908915-1.126093s-13.666676 27.640468-26.156072 44.071191c-12.489397 16.635467-24.978793 65.057472-26.104886 78.314659-1.126093 13.206001-7.985024 25.337096 1.126093 33.117376 9.111117 7.677908 28.459445 0 39.720376 8.855187 11.41449 8.855187 63.52189 74.987566 76.113659 85.992567 12.489397 10.953815-2.303372 15.355816-2.303372 25.285909v30.967562c0 4.402 36.342097 29.739096 52.209772 56.202285 15.867676 26.463189 37.46819 66.183565 38.64547 82.767845 1.177279 16.533095 15.867676 80.464473 9.111117 88.244754-6.705373 7.677908-20.474421 14.332095-20.474421 14.332094s-7.933838 30.814003 0 35.216004c8.03621 4.350814 13.666676 19.809002 23.8527 27.538096 10.23721 7.78028 55.690424 44.173563 61.423262 59.63175 5.630466 15.407002-6.910117 22.010002-26.104886 27.640468-19.348328 5.476908-69.305914-11.056187-84.047497-22.163561-14.792769-10.953815-36.290911-33.066189-40.948842-47.398283-4.555559-14.332095-3.327093-52.926378-7.882652-68.282194-4.606745-15.458188-13.61549-8.804001-19.348327-35.318375-5.732838-26.412003-12.489397-91.418289-22.675421-108.00257-10.288396-16.789025-137.434549-145.829062-153.353411-152.380876-15.867676-6.654187-32.912631 33.117376-74.93638 130.114944-41.972562 97.09994-76.011287 134.56813-101.041266 146.699224-24.978793 12.079908-51.134866 15.458188-57.840239 19.809002-6.858931 4.504373-18.171048 6.654187-15.867676 15.458188 2.252186 8.855187 10.186024 37.46819 16.993769 44.122377 6.858931 6.654187 21.600514 17.608002 9.111117 19.911374-12.489397 2.098628-57.840239 5.57928-72.633007-13.206002-14.741583-18.785281-52.209773-47.347098-41.87019-66.183565 10.186024-18.682909 37.417004-33.015003 55.588052-56.304657 18.119862-23.084909 70.329635-73.810287 77.13738-103.549382 6.858931-29.841468 5.784024-62.856472 15.867676-89.319661 10.23721-26.565561 26.156072-82.767846 30.609259-105.852755 4.504373-23.084909 10.23721-97.202312 11.312117-114.810314 1.177279-17.608002 17.044955-181.966414 23.903887-208.327231 6.807745-26.412003 29.483166-45.24847 54.461959-58.505657 24.876421-13.206001 40.846469-16.481909 40.846469-16.481909l12.489397 1.023721s-15.970048-77.13738 6.807745-95.922661c22.726607-18.631723 46.579307-44.020005 80.566845-36.342097 34.08991 7.677908 59.068704 14.332095 85.224776 45.146098 26.0537 30.865189 6.756559 41.972562 0 46.272191-6.858931 4.402-9.111117 17.608002-16.07242 20.986281-6.705373 3.327093-12.387025 3.327093-12.387024 9.98128s5.732838 24.159816 5.732837 28.613003c0 4.402-5.732838 11.056187 0 14.434467 5.784024 3.275907 22.777793 3.275907 22.777793 3.275907l6.654187-13.308373z" p-id="3835" fill="#ffffff"></path></svg>