<?xml version="1.0" standalone="no"?><!DOCTYPE svg PUBLIC "-//W3C//DTD SVG 1.1//EN" "http://www.w3.org/Graphics/SVG/1.1/DTD/svg11.dtd"><svg t="1537515196848" class="icon" style="" viewBox="0 0 1024 1024" version="1.1" xmlns="http://www.w3.org/2000/svg" p-id="2634" xmlns:xlink="http://www.w3.org/1999/xlink" width="16" height="16"><defs><style type="text/css"></style></defs><path d="M997.632 528.896l-178.4832-109.824s-8.1408-32-40.5504-71.3728l32.4096-120.832-121.6512 38.4512s-40.5504-32-62.208-35.6864L524.3904 51.2 416.256 237.8752s-21.6576 10.0864-64.9216 27.4432l-113.5616-49.408 35.1744 129.024s-29.7472 43.008-35.1744 76.9024L51.2 528.896l181.1968 107.0592s15.3088 48.5376 32.4096 71.424L224.256 825.344l124.416-30.208s58.5728 42.1376 81.1008 49.4592l91.904 175.7184 102.7584-175.7184s62.208-27.4944 81.152-41.216l121.6512 32.9728-37.8368-126.3104s32.4608-53.0432 43.264-79.616l164.9664-101.5808z m-340.736 159.232s-50.688 42.5472-116.224 46.6944c0 0-114.2784 15.104-154.1632-38.4l89.2416-32.9728s135.8848-45.312 137.8816-93.3888c0 0 41.2672-77.5168-16.2304-145.4592l-5.376-13.7728-10.8544 2.7648s-59.4944-20.5824-110.848 32.9728c0 0-29.0816 50.7904 8.1408 85.0944 0 0 20.2752 11.6736 18.944-11.008l-5.4784-30.208s82.4832-39.7824 83.8656 87.8592c0 0-66.9184 67.2768-137.9328 24.7296 0 0-89.9072-80.9984-73.0112-145.5104l-2.6624-32.9216 59.4432-52.224 78.4384-46.592 27.0336 5.4272 24.32-10.9568 13.5168 16.4864 75.776 19.2s66.8672 69.9904 67.584 98.816c0 0 48.64 151.7056-51.4048 233.3696z" p-id="2635" fill="#ffffff"></path></svg>