<?xml version="1.0" standalone="no"?><!DOCTYPE svg PUBLIC "-//W3C//DTD SVG 1.1//EN" "http://www.w3.org/Graphics/SVG/1.1/DTD/svg11.dtd"><svg t="1537515634638" class="icon" style="" viewBox="0 0 1024 1024" version="1.1" xmlns="http://www.w3.org/2000/svg" p-id="5473" xmlns:xlink="http://www.w3.org/1999/xlink" width="16" height="16"><defs><style type="text/css"></style></defs><path d="M276.889462 190.566817A397.670201 397.670201 0 0 0 113.766343 512.000256c0 62.463969 14.387193 121.599939 40.03838 174.233513l273.971063-229.324685 87.091157-230.707085v387.686206l-262.655869 199.9359A396.646202 396.646202 0 0 0 511.999744 910.233657a396.851002 396.851002 0 0 0 274.073463-109.311945l-245.606277-187.033507V226.201999l87.039956 230.707085 251.340675 210.329494a398.284601 398.284601 0 0 0-198.143901-516.095742l57.087971-98.81595A511.999744 511.999744 0 0 1 1023.999488 512.000256c0 282.777459-229.222285 511.999744-511.999744 511.999744S0 794.777715 0 512.000256c0-174.079913 86.937557-327.935836 219.69909-420.45419l57.190372 99.020751z m23.551988-16.025592A396.339002 396.339002 0 0 1 511.999744 113.766855c50.175975 0 98.150351 9.267195 142.335929 26.214387L711.782044 40.448492A510.361345 510.361345 0 0 0 511.999744 0.000512a509.593345 509.593345 0 0 0-268.441466 75.929562L300.49265 174.592425z" p-id="5474" fill="#ffffff"></path></svg>