<?xml version="1.0" standalone="no"?><!DOCTYPE svg PUBLIC "-//W3C//DTD SVG 1.1//EN" "http://www.w3.org/Graphics/SVG/1.1/DTD/svg11.dtd"><svg t="1543046087606" class="icon" style="" viewBox="0 0 1024 1024" version="1.1" xmlns="http://www.w3.org/2000/svg" p-id="2440" xmlns:xlink="http://www.w3.org/1999/xlink" width="16" height="16"><defs><style type="text/css"></style></defs><path d="M512 1019.904C791.3472 1019.904 1019.904 791.3472 1019.904 512c0-279.345152-228.5568-507.904-507.904-507.904-279.349248 0-507.904 228.558848-507.904 507.904C4.096 791.3472 232.6528 1019.904 512 1019.904z m-120.62720001-533.2992l190.46400001-190.464c6.3488-6.3488 19.0464-12.695552 25.3952-12.695552s19.0464 6.3488 25.3952 12.695552c12.6976 12.6976 12.6976 38.09484799 0 50.792448L467.5584 512l165.0688 165.0688c12.6976 12.6976 12.6976 38.0928 0 50.7904-12.6976 12.6976-38.09484799 12.6976-50.7904 0l-190.46400001-190.464c-19.0464-12.6976-19.0464-38.0928 0-50.7904z" p-id="2441" data-spm-anchor-id="a313x.7781069.0.i10" class="" fill="#ffffff"></path></svg>