<?xml version="1.0" standalone="no"?><!DOCTYPE svg PUBLIC "-//W3C//DTD SVG 1.1//EN" "http://www.w3.org/Graphics/SVG/1.1/DTD/svg11.dtd"><svg t="1564475040322" class="icon" viewBox="0 0 1024 1024" version="1.1" xmlns="http://www.w3.org/2000/svg" p-id="1971" width="32" height="32" xmlns:xlink="http://www.w3.org/1999/xlink"><defs><style type="text/css"></style></defs><path d="M897.146269 328.427197c0.339635-27.850083-10.868325-43.4733-33.963516-56.719071-94.078939-53.32272-186.459701-108.00398-280.199005-162.00597-45.171476-25.812272-90.003317-50.605638-144.344942-80.493532v48.228192c0 84.569154-0.67927 243.518408-0.67927 328.087562 0 38.378773-5.773798 33.284245 31.586069 33.963516 15.283582 0.339635 70.644113 0.339635 96.79602 0 29.887894-0.339635 28.189718 2.037811 28.189718-31.925705 0-24.793367-0.339635-66.228856-0.339635-98.833831 45.171476 26.151907 78.795357 46.869652 113.777778 64.870315 23.095191 11.887231 31.246434 28.868988 30.906799 54.00199-0.67927 94.078939 0 187.818242 0.339635 281.897181v111.739967c47.548922-26.831177 99.173466-55.700166 135.854063-77.436816 24.793367-14.604312 21.397015-22.41592 21.397015-50.945274-0.67927-120.910116-0.339635-242.839138 0.679271-364.428524z" p-id="1972"></path><path d="M562.605638 585.191376c-15.283582-0.339635-70.644113-0.339635-97.135655 0-29.887894 0.339635-28.189718-2.037811-28.529353 31.925705 0 24.793367 0.339635 66.228856 0.339635 98.833831-45.171476-26.151907-78.795357-46.869652-113.777777-65.20995-23.095191-11.887231-31.246434-28.868988-30.9068-54.00199 0.67927-94.078939 0-187.818242-0.339635-281.897181V203.101824c-47.548922 26.831177-99.173466 55.700166-135.854063 77.436816-24.793367 14.604312-21.397015 22.41592-21.397015 50.945274 1.018905 121.589386 1.018905 243.518408-0.339635 365.107794-0.339635 27.850083 10.868325 43.4733 33.963516 56.719071 94.078939 53.32272 187.138972 108.00398 280.878275 162.005971 45.171476 25.812272 90.682587 50.605638 145.024212 80.493532V947.58209c0-84.569154-0.339635-243.518408-0.339635-328.087563 0.339635-38.718408 5.773798-33.623881-31.58607-34.303151z" p-id="1973"></path></svg>