<?xml version="1.0" standalone="no"?><!DOCTYPE svg PUBLIC "-//W3C//DTD SVG 1.1//EN" "http://www.w3.org/Graphics/SVG/1.1/DTD/svg11.dtd"><svg t="1537515604329" class="icon" style="" viewBox="0 0 1024 1024" version="1.1" xmlns="http://www.w3.org/2000/svg" p-id="5171" xmlns:xlink="http://www.w3.org/1999/xlink" width="16" height="16"><defs><style type="text/css"></style></defs><path d="M129.1 176.7h4.8c0.7 3.1-1.1 4-1.6 6-2.8-0.4-3.6-2.6-3.2-6z m7.9 49.4c-2.8 2.9-1.9 9.2-7.9 9-1.1-6.6 3.4-7.8 7.9-9z m-6.3 16.5c3.1-0.6 2.3 6.8-1.6 4.5v-3c1.4 0.2 1.5-0.6 1.6-1.5z m0 128.7c2.8 0.4 3.6 2.6 3.2 6-1.8-0.2-2.8 0.3-3.2 1.5-3.7-0.4-0.9-6.6 0-7.5z m7.9 44.9c-2.4 1.7-3.9 4.3-7.9 4.5-0.2-4.2 3.9-4.3 7.9-4.5z m-7.9 28.4c6.7 2 0 4.9 0 9-4.5-1.5 0.4-6.4 0-9z m727.4 13.5v-3h3.2v3h-3.2z m-727.4 25.4c2.6-0.4 2.7 1.4 4.8 1.5-0.3 1.2-1.6 1.5-1.6 3h-3.2v-4.5z m-1.6 25.5c2.1 1 3 3.2 3.2 6-4.8 1.5-2.8-3.4-3.2-6z m0 22.4c2.7 2.6 6.2-2.2 6.4 4.5-2.5-0.1-6.1 0.7-6.4-1.5v-3z m11.1 158.7c2.3 1.3 6.2 1.2 4.8 6h-4.8v-6z m309.7-516.4h4.8c0.1-2.6-1.2-3.8-3.2-4.5 0.1 2.1-0.7 3.3-1.6 4.5z m25.5-1.5c1.6 0 1.9 1.2 3.2 1.5-0.2-2.4 0.2-5.2-3.2-4.5v3z m57.1 3c3.8-3.6-5.2-3.9-4.8-1.5 0.1-0.1 5.4 0.9 4.8 1.5z m109.6 1.5h3.2v-3h-3.2v3z m-435.2 9c0.1-4.5-5.6-3.7-9.5-4.5-0.9 5.3 4.7 4.5 9.5 4.5z m570.2 0h4.8v-4.5h-4.8v4.5z m-598.8 1.5h4.8v-4.5h-4.8v4.5z m100.1 3h4.8v-4.5h-4.8v4.5z m146.1 4.5c0.2-1.8 2.8-3.4 0-4.5-0.2 1.7-2.8 3.4 0 4.5z m-108 113.7c-19-11.8-31.5-26.3-58.8-22.5-16.1 2.3-26.2 10.6-44.5 13.5 12.8 18.1 30 32.8 46.1 47.9 46.8 44.1 91.6 92.9 138.2 139.2 8.4 2.6 155 148.8 155.7 154.2 20.6 23.1 49.2 45.8 71.5 70.3 7.6 8.4 17.5 25.3 28.6 31.4 20.9 11.6 68.9 8 96.9 7.5-0.3-3.2 2.6-1.7 4.8-4.5 9.7-12.4 17.2-38.4 25.4-62.9 7.8-23.2 17.8-41.1 15.9-62.9-0.2-1.8-2.2-7.7-3.2-9-0.5-0.7-13.4-7.8-17.5-10.5-18.3-11.9-53.3-34.2-65.1-41.9-101.7-66.9-207.8-129-309.7-196.1-37.1-20.9-61.5-39.5-84.3-53.7z m-19 450.6c40.2 2.9 82.6-21.5 125.5-29.9-8-14.8-28.2-30.1-42.9-43.4-34.1-30.9-72.9-65.5-108-95.8-12.1 27.1-24.7 56.3-38.1 86.8-4.2 9.5-12.7 21.8-11.1 29.9 1.9 9.8 39.4 30.4 50.8 40.4 6.3 5.6 12.9 9.8 22.2 12h1.6zM130.7 317.4c-1.8-0.3-0.9-1.5 0-1.5 0.3-1.3-0.6-1.4-1.6-1.5 1.6-5 3.1 1.7 4.8 1.5-0.6 2.3-2.8-1.3-3.2 1.5z m0.8-104.9h-0.1c-1.2-0.1-2.2-1.1-2.1-2.2 0.3-4.4 0-8.9-0.4-13.3-0.2-2.4-0.4-5-0.4-7.5v-0.1c0-1.1 1-2.1 2.2-2.1 1.3-0.1 2.3 0.9 2.3 2 0.1 2.4 0.3 4.9 0.4 7.3 0.3 4.5 0.7 9.1 0.4 13.8-0.2 1.2-1.1 2.1-2.3 2.1z m-0.8 153.9c-0.5 0-1-0.2-1.4-0.5-0.8-0.7-0.9-1.9-0.1-2.7 0.3-0.3 0.6-0.6 0.9-0.8 0.3-1.3 0.1-2.6-0.2-4.2-0.3-1.4-0.5-2.8-0.4-4.4 0.1-1 1.1-1.8 2.1-1.7 1.1 0.1 1.9 1 1.8 2-0.1 1.1 0.1 2.2 0.4 3.4 0.4 2 0.8 4.3-0.1 6.6l-0.2 0.5-0.4 0.3c-0.4 0.3-0.7 0.6-1 0.8-0.3 0.5-0.9 0.7-1.4 0.7z m3.2 37.2c-0.9 0-1.7-0.7-1.7-1.6 0-0.5-0.1-0.6-0.1-0.6s-0.3-0.1-0.4-0.2l0.7-1.5 0.7-1.5c0.9 0.4 2.6 1 2.6 3.7-0.1 0.9-0.9 1.7-1.8 1.7z m-1.6 31.9c-1 0-2-0.7-2.2-1.7l-0.2-1.1c-0.2-1.1-0.5-2.3-0.6-3.5-0.1-1.1 0.7-2.2 1.9-2.3 1.2-0.1 2.3 0.7 2.4 1.8 0.1 1.1 0.3 2.1 0.6 3.2l0.2 1.1c0.2 1.1-0.6 2.2-1.8 2.4-0.1 0.1-0.2 0.1-0.3 0.1z m355 437.3h-4.8c-1.4 0-2.5-1-2.5-2.3 0-1.3 1.1-2.3 2.5-2.3h4.8c1.4 0 2.5 1 2.5 2.3-0.1 1.2-1.2 2.3-2.5 2.3zM132.8 331.1c-0.1 1 0 1.9 0.4 2.9 0.2 0.5 0.2 1-0.1 1.5 1.8 4.2 4.9-2-0.3-4.4z m366.6-161.8h-2.5c-1.5 0-3 0-4.4 0.1-5 4.7 7.6 6.7 9.7 4.3 0.2-2.5-0.9-3.8-2.8-4.4zM712 179.7c1.1 7.2 6.9-1.3 7.9-4.2-0.6 0-1.2-0.1-1.7 0-1.6 1.8-4.2 2.8-6.2 4.2z m-5.4 0.2c0-0.1 0-0.2 0.1-0.3l0.5-1.5c-2.5-1.4-6.1-2.2-6.4 0 1.5 0 1.2 1.8 1.6 3h3.2c0.4-0.5 0.7-0.9 1-1.2z m29.4-3c-1.8-0.2-3.5-0.3-5.1 0-5.4 6.1 12.6 8 14.5 2.8-4-0.2-7.4-0.8-9.4-2.8z m-487 8.9c-0.2 0-0.4 0-0.6-0.1h-0.1v4.5h4.8c0.1-2.1 0.3-4.2-1.6-4.5l0.1-0.2c-0.8 0.1-1.5 0.2-2.2 0.3h-0.4z m454.6 222.6c0.3-0.8 13.9 10.8 21.1 13.8 3.6-33.4 16.6-72.7 15.9-100.3 0.5 3 0.4 0.9 0-4.5-14.8-11.9-29.1-27.8-50.8-28.4-16.5-0.5-37.7 8.9-57.2 13.5-15 3.5-29.6 7.1-42.9 10.5-4.4 1.1-11.4-1-12.7 4.5 42.4 30.9 85 63.3 126.6 90.9zM232.4 843.9c2.2 0.4 4.4 0.4 6.4 0 0.4-1 1.5-1.3 1.5-2.7-3.8-0.1-7.5-0.2-7.9 2.7z m192.1 4.9c0.5-0.1 1-0.2 1.5-0.2 0.9-0.1 1.4-0.2 1.7-0.3 0.1-1.9 0.1-3.7-1.6-4 0.3 1.3-0.6 1.4-1.6 1.5v3z m122.3 17.9c-0.6 6-6.7 6-10.4 6.1-0.9 0-1.8 0-2.6 0.1-8.8 5.5-14.5-4.2-18.8-7.7-5.2 0.1-1.1 8.9-7.9 7.5-6.8-9.3-27.3-11.1-42.9-7.5-5.4 3.4 7.2 5.8 1.6 9-8-1.6-9.1 3.4-15.9 3-4.2-11.5-13.9-17.9-19.1-28.4l-0.5-0.2c-0.7 2-2.8 2.2-4.1 2.3-0.7 0.1-1.5 0.1-1.9 0.4 0 0-0.1 0-0.1 0.1l0.3 0.5c-6.4 1.5-13.9 1.8-22.2 1.5-5.1-0.2-4.7-5.5-9.5-6-5-0.2-0.7 8.3-7.9 6-7.6-1.3-6.6-10.7-12.7-13.5-7.1-0.7-4.5 7.8-7.9 10.5-1.6-3.5-5.5-4.8-4.8-10.5-7.1 0.3-7.1 7.3-11.1 10.5-1.5-3-6.1-3.2-11.1-3l-0.4-0.1c0.2 0.7 0.4 1.5 0.5 2.2 0.1 0.9-0.6 1.7-1.6 1.8h-0.2c-0.9 0-1.6-0.6-1.7-1.5 0-0.3-0.1-0.6-0.2-1-2.9-1-2.9-4.3-6.1-1.4-4.4-0.6-1.5 5.6-4.8 6-0.5-7.4-4.2 1.2-7.9 0-0.9-4.6-0.4-10.6-6.4-10.5-2.9 1.7-1.1 7.9-7.9 6-3.3-0.4-0.4-6.6-4.8-6-2.3 4.4-6.7 6.7-14.3 6-2.4 1.8-1.9 6.2-6.4 6-0.2-6.8 0.6-14.5-6.4-15-8.3-2.3-1 10-7.9 9-7.2 2.3 0.8-9.8-6.4-7.5-6.3-0.4-0.5 10.5-4.8 12-0.6-4.4-7.5-2.9-9.5-6l0.1-0.4c-1.5 0.4-3.1 0.6-4.7 0.6-1.7 0-3.4-0.2-5.1-0.6l0.1 0.4c-12.6 1.4-21.1-1.1-28.6-4.5-2.2 4.3 4.3 7.6 0 9-5.9-6.9-17.3-0.2-23.8 1.5 0.4-3.9 0.5-7.5-4.8-6l-0.5-0.2c0.4 1.7 0.9 4.6-0.6 6.3-0.3 0.4-0.8 0.6-1.3 0.6-0.4 0-0.7-0.1-1-0.3-0.7-0.5-0.8-1.5-0.3-2.1 0.3-0.3 0.4-1.4 0.2-2.8-1.2-0.3-1-1.9-1.3-3-8.4-2.4-8.2 11.1-12.7 7.5-3-2.2-0.2-9.8-3.2-12-6.3-1-17.6 2.6-19.1-3 14.2-40.1-5.6-93.4 7.9-137.7 5.7-1.2 7.7 3.4 11.1 0-1.2-28.6 3.3-51.8 3.2-79.3-6.2-0.1-11.9-0.7-15.9-3-2.8-25.6-6.7-63.5 0-88.3 4.9-1.1 3.1 4.1 7.9 3v-3l0.2-0.2c-0.8-0.5-1.7-1.1-2.5-1.8-1-0.8-1.2-2.2-0.4-3.2 0.8-1 2.4-1.1 3.4-0.4l1.2 0.9c3.8-1 5.3 6.4 7.6 1.6-2.8-8.3-0.4-20.5 0-28.4-17.2-6.7-20.2-38-9.5-53.9-5.8-16.5-8.4-36-11.1-55.4-2.6 0.8-8.8 0.5-7.9-9 3.8-0.6 3.5 2.7 7.9 1.5-4.6-10.8 1.2-30.6-1.6-41.9 0-0.2-1.9 0-2.8 0-0.1 0.3-0.1 0.6-0.2 0.9-0.1 0.9-0.9 1.6-1.9 1.6h-0.2c-1-0.1-1.8-0.9-1.7-1.9 0.1-1.2 0.5-2.2 0.9-3.4l-0.6-0.2v-1.5l0.7-0.2c-0.9-2.1-0.7-4.1-0.3-5.9l-0.4 0.1c-0.9-4.8 3-4.6 0-7.5 2.8-0.2 3.3 1.8 6.4 1.5 2.2-35.3 5.5-69.7 4.8-107.8-0.6-2.9-6.2-1.2-4.8-6 0.8-13.2 3.6-24.6 4.8-37.4 13.5 12.3 41.5 6.2 52.4-4.5 0.9 3.6 1.4 7.7 6.4 7.5 9.3-0.2 18.6-0.6 23.8 3 2.4-1.8 1.9-6.2 6.4-6 2.7 0.9-0.1 7.1 3.2 7.5 3.6-6.2 15-8.1 15.9 1.5 0.2-0.1 0.3-0.1 0.5-0.1 0.4 0 0.9-0.1 1.2-0.1 9-10.6 33.7 2.3 44.3-5.8 7.5 4.9 22.7 6.3 27-1.5 13.2 21.3 59.5 2.6 82.6 15 3.7-1.5 1.9-8.2 4.8-10.5 5.8 0.5 10.3-0.2 14.3-1.5 1.5-1.9 2.5-4.3 4.5-5.8 0.1-1 0.1-2 0.2-3.1v-1c0-1.3 1.2-2.3 2.5-2.2 1.4 0 2.4 1.1 2.4 2.4v0.9c0 1.4-0.1 2.8-0.3 4.3l0.3-0.1c5.1 5.2 0.6-11.3 6.4-10.5 6 1 16.8 3.3 22.2 0-0.4-2.4 1.5-2.6 1.6-4.5h1.6v1.5c8.8 2.2 17.3 4.6 27 6l-0.1 0.2c2-0.3 4-0.3 5.9-0.3h2.2c4.9-2.9 12.9-2.8 15.8-7.4h1.6c5.9 12.7 28.8 2.8 39.3 8.8 0.4 0.1 0.9 0.1 1.4 0.2 1.3 0.1 2.3 1.3 2.2 2.5-0.1 1.2-1.2 2.1-2.4 2.1h-0.3c-0.8-0.1-1.5-0.2-2.2-0.3l0.1 0.2c-3.6-0.4-6 0.4-6.4 3 8.2 2.9 15.4 0.8 22.2-1.5 7.6 5.3 13.9 11.9 14.3 23.9 9.7-2.3 20.3-3.8 33.4-3 6.4-6.5 6.2-19.2 4.8-25.4 31-3.4 65.2-0.5 93.7 3l-0.1 0.2c1.7-0.2 3.4-0.1 4.9 0.1l-0.1-0.3c4.5-1.2 4.1 2.1 7.9 1.5l-0.1 0.2c2.6-0.4 5.3-0.4 8.1 0l-0.1-0.2c8.5 1.4 18.1 1.9 28.6 1.5 0.3-1.2 1.6-1.5 1.6-3l0.3 0.1c-0.1-0.8-0.2-1.6-0.3-2.5-0.2-1.4-0.4-2.8-0.4-4.3 0-1.1 0.9-2 2.1-2 1.1 0 2.1 0.9 2.1 1.9 0 1.2 0.2 2.5 0.4 3.8 0.1 1 0.3 2 0.4 3.1l0.4-0.1c2.1 1.5 4.8 2.5 6.4 4.5 9.1 1.6 9.3-5.2 15.9-6 8.4 7.5 28.6 13.4 38.1 3 1 8.1 13 0.6 22.2 3 2.4 9.4 15.5 10.3 22.2 15 2.6 1.8 2 4.9 4.8 4.5-3.7 11 0.9 29.8-6.4 37.4 12.5 55.8 5.2 112.5 4.8 175.1-8.3-0.3-15.9 0-22.2 1.5-0.2 8.6 4.4 12.9 6.4 19.5-20.8 8.1-10.8 36.7 4.8 43.4-1.9 14.2 1.2 23.8 7.9 29.9-4.9 7.7-7.7 20-3.2 28.4-5.7 6.6-4.9 19.3-4.8 31.4-5.1 2-9.7-8-11.1 0-0.5 11 19.2 5.7 23.8 7.5-1.1 95.8 2.1 195.6-1.6 288.9-20.5-9-57.7-28.8-82.6-10.5 4 1.3 8.5 2 14.3 1.5l-0.2 0.5c3-0.9 6-0.1 8.7 0.6 0.7 0.2 1.5 0.4 2.2 0.5 0.8 0.2 1.3 0.9 1.1 1.6-0.1 0.6-0.8 1.1-1.4 1.1h-0.3c-0.8-0.2-1.5-0.4-2.3-0.6-2.2-0.6-4.2-1.1-6.1-0.8-2.2 0.9-0.2 5.8-3.2 6-4.9 1.1-3.1-4.1-7.9-3-14.7 13.3-47 8.6-63.5 0-12.8 4.6-31 2.9-38.1-6-6.1 2.2-11.3 5.3-15.9 9-15.3-1.5-24.8 2.6-36.5 4.5-2.7-1.5-2-8.6-6.2-4.6-0.1 0.6-0.3 1.1-0.4 1.7l0.2-0.1c1.1 5.5-2.5 6.6-7.9 6-0.2-3.6 0.8-6.1 3-7.4 0.1-0.5 0.2-1.1 0.4-1.7h-0.2c-3.4-3.5-13.1-0.4-14.3 3h-0.2c0.1 0.5 0.3 1.1 0.4 1.6 3.8 1.7 6.4-4.4 7.8-0.1 0 7-5.2 9.1-11.1 10.5-2.6 1-5.5 1.5-8.5 1.5-2.3 0-4.7-0.3-7.1-0.8-1.2-0.3-2-1.5-1.7-2.6 0.3-1.2 1.5-1.9 2.8-1.6 3.5 0.8 8.6 1.3 13.2-0.6l-0.3-0.2v-4.5l0.2 0.1-0.3-1.5c-21.8 3.9-54.4-2.4-71.4 6z m-14.3 1.8c1.3-0.2 2.6-0.2 3.9-0.2 1 0 1.8 0 2.5-0.1l3-1.2c0.1-0.3 0.2-0.7 0.2-1.1 0-0.2 0.1-0.4 0.1-0.6h-0.1c-4.5-2.3-6.5 0.5-12.7-1.5-0.1 2.6 1.2 3.9 3.2 4.5l-0.1 0.2zM129.9 256.2c-0.6 0-1-0.4-1-0.9v-3c0-0.5 0.5-0.9 1-0.9 0.6 0 1 0.4 1 0.9v3c0 0.5-0.4 0.9-1 0.9z m0.8 36.6c-0.9 0-1.7-0.7-1.7-1.6 0.1-6.9 0-13.9 0-20.7v-7.8c0-0.9 0.8-1.6 1.7-1.6 0.9 0 1.7 0.7 1.7 1.6v28.5c0 0.9-0.8 1.6-1.7 1.6z m-0.8 232.7h-0.3c-0.5-0.2-0.7-0.6-0.5-1.1 0.1-0.4 0.3-0.7 0.4-1.1 0.5-1.1 0.9-2.2 1.1-3.3 0.1-0.5 0.6-0.7 1.1-0.6 0.5 0.1 0.8 0.5 0.7 1-0.3 1.2-0.7 2.4-1.2 3.5-0.1 0.4-0.3 0.7-0.4 1.1-0.2 0.3-0.5 0.5-0.9 0.5z m472.5-363.8c-0.4 7.1-3.6 11.5-3.2 19.5-5.7-6.1-11.9-11.7-17.5-18 1.6-5.2 16.8-3.3 20.7-1.5z" p-id="5172"></path></svg>