<?xml version="1.0" standalone="no"?><!DOCTYPE svg PUBLIC "-//W3C//DTD SVG 1.1//EN" "http://www.w3.org/Graphics/SVG/1.1/DTD/svg11.dtd"><svg t="1537515794995" class="icon" style="" viewBox="0 0 1024 1024" version="1.1" xmlns="http://www.w3.org/2000/svg" p-id="6414" xmlns:xlink="http://www.w3.org/1999/xlink" width="16" height="16"><defs><style type="text/css"></style></defs><path d="M512 147.911111c79.644444 0 153.6 28.444444 216.177778 73.955556L836.266667 113.777778C745.244444 45.511111 631.466667 0 512 0S278.755556 45.511111 187.733333 113.777778l108.088889 108.088889C358.4 176.355556 432.355556 147.911111 512 147.911111z" fill="#2c2c2c" p-id="6415"></path><path d="M864.711111 142.222222l-102.4 102.4c68.266667 68.266667 113.777778 159.288889 113.777778 261.688889 0 68.266667-17.066667 125.155556-45.511111 182.044445L625.777778 494.933333 534.755556 284.444444v329.955556l193.422222 187.733333c-62.577778 45.511111-136.533333 73.955556-216.177778 73.955556s-159.288889-28.444444-216.177778-73.955556l193.422222-187.733333V284.444444L403.911111 494.933333l-204.8 193.422223c-28.444444-51.2-45.511111-113.777778-45.511111-182.044445 0-102.4 45.511111-199.111111 113.777778-261.688889L159.288889 142.222222C62.577778 238.933333 0 369.777778 0 512c0 284.444444 227.555556 512 512 512s512-227.555556 512-512c0-142.222222-62.577778-273.066667-159.288889-369.777778z" fill="#2c2c2c" p-id="6416"></path></svg>