<?xml version="1.0" standalone="no"?><!DOCTYPE svg PUBLIC "-//W3C//DTD SVG 1.1//EN" "http://www.w3.org/Graphics/SVG/1.1/DTD/svg11.dtd"><svg t="1564480273064" class="icon" viewBox="0 0 1024 1024" version="1.1" xmlns="http://www.w3.org/2000/svg" p-id="35821" xmlns:xlink="http://www.w3.org/1999/xlink" width="16" height="16"><defs><style type="text/css"></style></defs><path d="M693.7540000000002 898.809c-0.012 9.540979117872439e-18-0.023 1.9081958235744878e-17-0.035 2.42861286636753e-17-6.421999999999999 2.6645352591003757e-15-12.237-2.608999999999991-16.438000000000002-6.8259999999999925l-363.5050000000003-363.5089999999998c-9.102000000000007-9.096999999999992-9.102000000000011-23.851999999999986-2.1316282072803006e-14-32.94799999999999l363.50599999999974-363.50600000000026c9.091-9.098 23.855999999999987-9.098000000000017 32.94799999999999-2.1316282072803006e-14 9.102 9.102 9.102000000000007 23.855999999999998 2.1316282072803006e-14 32.953l-347.02699999999976 347.0290000000002 347.0270000000002 347.0329999999998c9.102000000000007 9.096999999999992 9.102000000000011 23.851999999999986 2.1316282072803006e-14 32.94799999999999-4.547 4.553-10.512999999999995 6.828000000000003-16.473999999999997 6.828000000000009z" fill="" p-id="35822"></path></svg>