<?xml version="1.0" standalone="no"?><!DOCTYPE svg PUBLIC "-//W3C//DTD SVG 1.1//EN" "http://www.w3.org/Graphics/SVG/1.1/DTD/svg11.dtd"><svg t="1564475529420" class="icon" viewBox="0 0 1024 1024" version="1.1" xmlns="http://www.w3.org/2000/svg" p-id="2159" width="16" height="16" xmlns:xlink="http://www.w3.org/1999/xlink"><defs><style type="text/css"></style></defs><path d="M912.213333 74.524444c13.255111 0 22.186667 6.940444 26.339556 11.150223 4.096 4.096 11.093333 13.084444 11.093333 26.339555v800.199111c0 13.255111-6.883556 22.186667-11.093333 26.339556a37.432889 37.432889 0 0 1-26.339556 11.093333H112.014222a37.205333 37.205333 0 0 1-26.339555-11.093333 37.432889 37.432889 0 0 1-11.093334-26.339556V111.900444c0-13.255111 6.826667-22.186667 11.093334-26.339555a37.432889 37.432889 0 0 1 26.339555-11.093333h800.199111v0.113777z m0-74.524444H112.014222A112.241778 112.241778 0 0 0 0 111.900444v800.199112C0 973.710222 50.403556 1024 111.900444 1024h800.199112A112.241778 112.241778 0 0 0 1024 912.099556V111.900444A112.071111 112.071111 0 0 0 912.213333 0z" fill="#2c2c2c" p-id="2160"></path><path d="M128 699.107556V261.404444h89.884444c26.737778 0 45.909333 5.745778 57.457778 17.123556 11.605333 11.377778 17.351111 30.264889 17.351111 56.490667v69.973333c0 29.127111-6.087111 50.232889-18.204444 63.203556-12.117333 13.084444-31.857778 19.569778-59.050667 19.569777h-22.698666v211.512889H128v-0.170666z m64.739556-384.398223v119.068445h5.688888c10.808889 0 18.432-3.242667 22.869334-9.728 4.437333-6.428444 6.656-17.92 6.656-34.531556v-36.408889c0-14.734222-2.161778-24.860444-6.485334-30.321777-4.209778-5.404444-11.946667-8.192-23.096888-8.192h-5.632v0.113777z m133.859555-53.304889H391.395556v355.498667c0 12.686222 1.365333 21.219556 4.152888 25.315556 2.673778 4.096 7.509333 6.144 14.336 6.144 6.656 0 11.377778-2.048 13.994667-6.144 2.673778-4.096 3.982222-12.515556 3.982222-25.315556V261.404444h64.739556v339.911112c0 34.417778-6.940444 60.131556-20.764445 77.141333-13.653333 17.066667-34.360889 25.543111-61.952 25.543111-27.761778 0-48.583111-8.590222-62.464-25.713778-13.880889-17.066667-20.821333-42.837333-20.821333-77.084444V261.404444z m199.224889 437.703112V261.404444h91.477333c24.974222 0 42.666667 5.347556 53.191111 15.985778 10.410667 10.695111 15.701333 28.501333 15.701334 53.418667v55.409778c0 19.683556-4.323556 34.474667-13.027556 44.373333-8.647111 9.955556-22.357333 15.815111-40.96 17.635556 20.252444 1.877333 34.986667 7.68 44.373334 17.521777 9.329778 9.841778 13.937778 24.803556 13.937777 44.771556v114.801778c0 24.177778-6.144 42.496-18.375111 55.011555-12.231111 12.515556-30.378667 18.773333-54.385778 18.773334H525.824z m63.431111-277.048889a27.306667 27.306667 0 0 1 3.754667 0.341333 25.372444 25.372444 0 0 0 3.185778 0.341333c10.296889 0 17.635556-3.413333 21.959111-10.24 4.323556-6.883556 6.542222-18.375111 6.542222-34.588444v-24.576c0-14.961778-2.104889-25.201778-6.428445-30.72-4.266667-5.518222-11.946667-8.305778-23.153777-8.305778h-5.859556V422.115556z m0 223.744a27.306667 27.306667 0 0 1 3.754667 0.284444 25.372444 25.372444 0 0 0 3.185778 0.341333c10.296889 0 17.635556-3.299556 21.959111-9.955555 4.323556-6.656 6.542222-17.92 6.542222-34.019556V515.072c0-14.961778-2.104889-25.258667-6.428445-30.72-4.266667-5.575111-11.946667-8.362667-23.153777-8.362667h-5.859556v169.813334z m220.956445-180.053334h85.788444v137.102223c0 33.905778-6.940444 59.221333-20.707556 75.946666-13.767111 16.782222-34.531556 25.088-62.065777 25.088-27.591111 0-48.298667-8.533333-62.065778-25.486222-13.767111-17.066667-20.707556-42.723556-20.707556-77.198222V358.968889c0-34.417778 6.940444-60.131556 20.707556-77.255111 13.767111-17.066667 34.474667-25.713778 62.008889-25.713778 26.737778 0 47.217778 8.192 61.44 24.689778 14.222222 16.497778 21.276444 40.277333 21.276444 71.452444v42.097778h-64.284444v-48.071111c0-15.246222-1.308444-25.088-4.096-29.411556-2.730667-4.323556-7.566222-6.428444-14.392889-6.428444s-11.548444 1.934222-14.165333 5.688889c-2.616889 3.811556-3.868444 12.344889-3.868445 25.429333v275.342222c0 13.084444 1.251556 21.617778 3.868445 25.543111 2.616889 3.868444 7.338667 5.802667 14.222222 5.802667 6.826667 0 11.605333-2.104889 14.336-6.542222 2.673778-4.380444 4.096-14.165333 4.096-29.184v-91.591111h-21.617778v-55.068445h0.227556z" fill="#2c2c2c" p-id="2161"></path></svg>